<?xml version="1.0" standalone="no"?>
<!DOCTYPE svg PUBLIC "-//W3C//DTD SVG 20010904//EN"
 "http://www.w3.org/TR/2001/REC-SVG-20010904/DTD/svg10.dtd">
<svg version="1.0" xmlns="http://www.w3.org/2000/svg"
 width="512.000000pt" height="512.000000pt" viewBox="0 0 512.000000 512.000000"
 preserveAspectRatio="xMidYMid meet">
<metadata>
Created by potrace 1.14, written by Peter Selinger 2001-2017
</metadata>
<g transform="translate(0.000000,512.000000) scale(0.100000,-0.100000)"
fill="#000000" stroke="none">
<path d="M2944 4675 c-9 -23 51 -139 90 -173 29 -25 40 -29 68 -23 28 6 33 12
36 37 2 22 11 35 28 43 63 28 -3 92 -113 110 -38 7 -76 14 -86 17 -10 3 -20
-1 -23 -11z"/>
<path d="M2610 4399 c-63 -5 -151 -16 -195 -25 -354 -70 -762 -376 -1060 -794
-38 -52 -91 -124 -119 -159 -28 -35 -50 -68 -48 -74 2 -5 -20 -60 -47 -122
-64 -143 -123 -315 -166 -480 -28 -110 -32 -139 -26 -190 l7 -60 8 40 c46 251
83 377 169 573 35 79 118 212 133 212 1 0 -9 -26 -23 -57 -20 -45 -26 -76 -27
-136 -1 -75 -3 -80 -33 -107 -27 -24 -32 -36 -30 -68 1 -29 -6 -47 -26 -71
-27 -33 -34 -57 -18 -63 13 -5 -32 -301 -46 -305 -10 -4 -9 -9 1 -26 9 -16 14
-74 15 -201 2 -98 6 -186 11 -195 4 -9 15 -53 23 -98 9 -46 23 -97 31 -115 9
-17 16 -38 16 -47 0 -9 11 -38 25 -65 23 -46 34 -126 18 -126 -18 1 -84 130
-94 184 -10 56 -75 256 -86 266 -11 10 8 -136 28 -212 29 -115 65 -210 125
-331 30 -59 54 -112 54 -118 0 -14 72 -83 87 -83 6 -1 50 -34 97 -75 59 -50
86 -80 86 -95 0 -32 75 -79 118 -72 28 4 32 2 32 -19 0 -38 49 -69 156 -100
55 -16 103 -32 108 -36 5 -4 -7 -16 -26 -25 -28 -13 -42 -14 -66 -6 -16 5 -35
6 -43 2 -8 -6 -24 -1 -43 13 -16 11 -26 16 -22 9 12 -19 -30 -14 -75 8 -51 27
-105 82 -190 196 -72 97 -94 114 -117 90 -13 -12 -6 -25 53 -101 112 -143 159
-190 232 -227 118 -62 201 -69 397 -39 51 8 77 8 101 0 25 -10 47 -8 111 6
162 35 321 95 308 116 -2 4 0 10 6 14 5 3 10 15 10 25 0 14 40 40 153 101 83
45 193 106 244 135 50 30 98 52 106 48 15 -5 267 115 301 145 10 9 17 11 15 5
-6 -16 -99 -90 -191 -153 -75 -50 -94 -71 -64 -71 18 0 191 100 336 195 258
167 594 420 727 548 109 105 152 170 163 249 10 67 23 89 42 70 7 -7 19 -12
28 -12 17 1 70 44 70 58 0 5 -20 26 -45 46 -28 23 -42 42 -38 51 3 9 -1 15 -9
15 -8 0 -19 5 -25 11 -14 14 11 44 30 36 7 -3 24 1 37 8 19 10 28 11 40 2 8
-7 4 3 -9 21 -12 17 -26 32 -31 32 -13 0 -9 60 4 61 6 0 -4 5 -21 10 -39 11
-41 29 -11 70 22 29 22 31 5 78 -21 61 -21 59 6 63 31 4 35 44 6 74 -35 37
-122 66 -179 58 -42 -6 -49 -4 -64 17 -9 13 -16 26 -16 30 0 3 23 20 50 37 28
17 50 36 50 41 0 31 -100 42 -138 15 -16 -11 -22 -25 -22 -55 0 -21 -4 -39
-10 -39 -5 0 -10 7 -10 15 0 12 -8 14 -42 8 -24 -5 -63 -7 -88 -6 -263 13
-364 14 -391 3 -16 -7 -27 -15 -23 -19 3 -3 51 -7 107 -7 56 -1 116 -6 132
-12 24 -8 11 -10 -75 -11 -254 -3 -563 -34 -712 -72 -42 -10 -101 -19 -132
-19 -33 0 -56 -4 -56 -11 0 -7 12 -8 33 -4 40 9 31 -2 -12 -15 -23 -6 -35 -5
-45 5 -12 12 -28 9 -110 -20 -52 -19 -102 -32 -110 -29 -8 3 -34 -7 -58 -24
-24 -16 -67 -42 -96 -57 -60 -32 -159 -133 -185 -187 -22 -47 -21 -70 4 -119
l20 -41 -70 -107 c-39 -59 -71 -110 -71 -114 0 -4 6 -7 14 -7 9 0 12 -8 8 -25
-7 -40 21 -30 41 15 10 22 53 76 96 120 l76 81 33 -16 c36 -19 42 -35 12 -35
-18 0 -19 -3 -10 -20 6 -11 15 -18 21 -15 5 4 9 -11 9 -34 0 -29 4 -41 14 -41
8 0 18 5 21 10 8 13 45 13 45 0 0 -5 -11 -17 -25 -26 -27 -18 -35 -50 -10 -40
17 6 19 -7 5 -35 -9 -16 -7 -19 10 -19 12 0 18 5 15 10 -3 6 -1 10 4 10 6 0
11 -11 11 -25 0 -14 4 -25 9 -25 6 0 38 24 72 53 82 70 123 90 189 92 30 1 72
6 93 10 20 4 37 3 37 -1 0 -5 -31 -27 -69 -49 -61 -36 -71 -45 -86 -88 -21
-57 -13 -71 40 -70 57 2 84 39 53 72 -11 10 -9 15 7 27 25 18 39 13 43 -15 3
-21 7 -22 45 -16 23 4 43 11 45 15 2 4 12 6 22 3 13 -4 20 0 20 9 0 10 41 26
138 53 114 32 156 39 252 42 l115 4 -85 -56 c-76 -49 -110 -86 -70 -76 8 2 24
6 35 9 l20 5 -20 -23 c-11 -12 -31 -27 -45 -32 -14 -5 -108 -63 -210 -128
-102 -65 -204 -124 -227 -131 -24 -7 -43 -18 -43 -26 0 -7 -7 -13 -15 -13 -8
0 -15 7 -15 15 0 24 -19 17 -25 -8 -5 -17 -29 -35 -94 -67 -100 -49 -139 -47
-80 3 19 16 30 27 24 25 -5 -2 -41 -18 -78 -36 -38 -18 -77 -32 -88 -32 -10 0
-53 -14 -96 -31 -46 -18 -86 -28 -99 -25 -13 4 -26 2 -29 -4 -8 -12 -52 -13
-59 -1 -3 5 -15 7 -26 4 -13 -4 -35 8 -67 34 -27 22 -53 43 -60 46 -19 12 21
-82 43 -97 10 -8 16 -17 12 -21 -4 -4 -50 -14 -103 -23 -110 -18 -133 -13
-220 44 -27 18 -83 43 -124 56 -65 20 -80 30 -120 76 -30 35 -54 76 -69 120
-12 36 -22 70 -22 74 0 20 31 5 58 -28 45 -54 58 -33 19 29 -33 53 -77 152
-77 175 0 6 5 12 10 12 7 0 7 6 1 19 -7 12 -7 54 -1 122 5 57 6 107 4 111 -6
10 36 161 47 168 4 3 9 19 11 35 1 17 8 28 13 25 6 -3 12 21 16 56 3 36 16 82
31 110 14 27 30 72 37 99 29 119 185 374 320 525 58 65 258 240 284 249 7 2
-16 -25 -49 -60 -34 -36 -88 -106 -121 -156 -33 -50 -81 -117 -108 -149 -57
-71 -145 -243 -186 -366 -17 -49 -28 -92 -26 -94 5 -5 101 198 99 209 -1 4 7
7 18 7 14 0 30 23 64 93 50 105 126 211 169 237 16 10 44 40 62 67 34 51 166
170 267 240 87 61 155 83 278 93 l105 8 77 -39 c88 -45 117 -47 285 -25 85 12
106 18 130 40 l28 26 -35 -10 c-49 -14 -113 -12 -135 3 -36 27 13 51 53 26 28
-18 88 23 96 65 4 19 16 46 27 60 11 14 17 26 12 26 -4 0 -2 4 6 9 8 5 44 -4
99 -26 80 -32 88 -34 129 -22 25 6 68 9 101 6 l57 -5 -66 21 c-61 21 -80 31
-149 82 -73 54 -82 58 -89 47 -10 -17 -36 3 -38 30 -3 44 -16 83 -31 101 -14
16 -13 19 8 42 26 28 25 30 -34 65 -37 22 -38 23 -27 2 20 -37 12 -46 -16 -20
-16 14 -54 44 -85 68 -56 41 -63 43 -225 72 -207 37 -230 38 -373 27z m-660
-342 c0 -2 -10 -12 -22 -23 l-23 -19 19 23 c18 21 26 27 26 19z m-237 -245
c-243 -273 -323 -369 -323 -386 0 -8 -26 -55 -58 -104 -32 -48 -64 -102 -71
-120 -7 -18 -17 -32 -22 -32 -14 0 -12 4 31 90 43 85 51 127 24 116 -12 -5
-10 3 7 32 99 164 220 322 315 412 79 76 161 136 179 132 6 -1 20 7 30 18 10
11 24 20 32 20 7 0 -57 -80 -144 -178z m2657 -918 c15 -40 12 -46 -15 -28 -27
18 -34 54 -10 54 9 0 20 -12 25 -26z m-2090 -439 c-7 -8 -16 -12 -21 -9 -13 8
-1 24 18 24 13 0 13 -3 3 -15z m1955 -283 c-5 -31 -15 -52 -31 -65 -14 -10
-33 -36 -44 -56 -19 -38 -146 -158 -134 -127 5 12 2 15 -10 10 -9 -3 -16 -16
-16 -28 0 -12 -14 -32 -33 -47 -95 -76 -131 -100 -143 -95 -7 3 -16 1 -19 -4
-4 -6 -1 -10 5 -10 6 0 8 -5 5 -10 -4 -6 -12 -9 -20 -8 -7 2 -49 -28 -94 -65
-53 -44 -89 -67 -102 -65 -16 2 -4 16 58 68 43 35 100 79 128 98 59 39 215
179 215 193 0 5 -5 9 -11 9 -11 0 -128 -89 -256 -196 -77 -64 -77 -64 -97 -44
-19 19 -19 20 -1 40 10 11 23 19 29 17 6 -3 27 7 46 22 63 46 220 181 213 181
-5 1 6 8 22 17 43 22 64 43 59 57 -4 10 74 52 82 43 3 -2 -8 -25 -22 -51 -14
-26 -24 -50 -20 -53 8 -9 86 45 93 64 4 10 0 21 -9 27 -14 9 -15 12 -1 33 8
12 20 20 25 17 14 -9 68 46 68 68 0 11 5 16 11 12 7 -4 8 -23 4 -52z m-458 6
c-3 -8 -6 -5 -6 6 -1 11 2 17 5 13 3 -3 4 -12 1 -19z m-23 -43 c-4 -8 -10 -15
-15 -15 -4 0 -6 7 -3 15 4 8 10 15 15 15 4 0 6 -7 3 -15z m-209 -15 c-39 -26
-54 -26 -24 0 13 10 31 19 39 20 8 0 2 -9 -15 -20z m525 0 c0 -5 -5 -10 -11
-10 -5 0 -7 5 -4 10 3 6 8 10 11 10 2 0 4 -4 4 -10z m-165 -90 c-3 -5 -11 -10
-16 -10 -6 0 -7 5 -4 10 3 6 11 10 16 10 6 0 7 -4 4 -10z m-221 -62 c-82 -76
-164 -138 -181 -138 -26 0 -10 18 100 104 120 95 171 116 81 34z m-104 33 c0
-11 -74 -73 -107 -90 -24 -12 -29 -6 -14 17 9 14 101 81 114 81 4 1 7 -3 7 -8z
m224 -62 c-27 -28 -79 -70 -116 -95 -41 -27 -68 -51 -68 -62 0 -10 -12 -22
-30 -29 -17 -6 -28 -7 -24 -2 6 11 2 11 -20 3 -9 -3 -16 -15 -16 -25 0 -27
-176 -142 -207 -136 -14 3 -30 -4 -44 -19 -25 -26 -41 -32 -33 -11 7 19 102
90 112 83 4 -3 16 8 26 25 9 16 36 39 58 50 22 11 42 29 45 39 6 21 66 47 71
30 5 -13 32 -13 32 0 0 6 -6 10 -12 10 -7 1 1 8 17 17 17 8 46 31 66 50 39 37
181 132 188 126 3 -2 -17 -26 -45 -54z m-616 -209 c-20 -32 -119 -68 -118 -42
1 8 123 72 128 67 2 -2 -3 -13 -10 -25z m34 8 c-7 -7 -12 -8 -12 -2 0 14 12
26 19 19 2 -3 -1 -11 -7 -17z m333 -58 c-3 -5 -16 -15 -28 -21 -22 -12 -22
-12 -3 10 19 21 43 30 31 11z m-65 -65 c0 -15 -6 -25 -14 -25 -8 0 -16 -10
-18 -22 -4 -25 -28 -37 -28 -13 0 13 -4 14 -20 5 -11 -6 -20 -17 -20 -25 0
-16 -47 -51 -56 -42 -3 3 4 11 16 17 18 10 20 14 9 21 -11 7 -9 10 9 15 13 4
21 11 19 18 -3 8 71 63 101 75 1 1 2 -10 2 -24z m-2243 -47 c21 -24 37 -48 31
-48 -2 0 -19 16 -38 35 -19 19 -29 35 -24 35 6 0 20 -10 31 -22z m2283 -8 c0
-5 -5 -10 -11 -10 -5 0 -7 5 -4 10 3 6 8 10 11 10 2 0 4 -4 4 -10z m-45 -30
c-3 -5 -11 -10 -16 -10 -6 0 -7 5 -4 10 3 6 11 10 16 10 6 0 7 -4 4 -10z
m-615 -10 c0 -5 -4 -10 -10 -10 -5 0 -10 5 -10 10 0 6 5 10 10 10 6 0 10 -4
10 -10z m277 -27 c-24 -17 -48 -47 -63 -80 -27 -56 -92 -113 -130 -113 -12 0
-24 -7 -28 -15 -3 -8 -13 -15 -22 -15 -15 0 -14 4 5 24 13 14 36 30 52 36 28
12 43 37 15 27 -8 -3 -17 1 -20 9 -5 13 6 23 97 78 15 9 27 22 27 29 0 7 19
20 43 29 61 24 67 22 24 -9z m-257 -153 c-20 -13 -33 -13 -25 0 3 6 14 10 23
10 15 0 15 -2 2 -10z m-66 -51 c-11 -18 -70 -39 -110 -39 -31 0 -35 2 -24 15
7 8 18 15 24 15 6 0 4 -5 -4 -10 -29 -19 13 -10 50 10 39 21 75 26 64 9z m53
-25 c-3 -3 -12 -4 -19 -1 -8 3 -5 6 6 6 11 1 17 -2 13 -5z m-42 -14 c3 -6 -4
-10 -17 -10 -18 0 -20 2 -8 10 19 12 18 12 25 0z m-55 -40 c-8 -5 -19 -10 -25
-10 -5 0 -3 5 5 10 8 5 20 10 25 10 6 0 3 -5 -5 -10z m-1172 -37 c5 -18 -10
-16 -34 2 -18 15 -18 15 5 13 14 -2 26 -9 29 -15z m1102 14 c0 -2 -23 -20 -50
-41 -42 -32 -53 -36 -66 -26 -12 11 -23 9 -60 -9 -27 -14 -52 -20 -62 -16 -9
4 -12 9 -7 11 27 11 231 82 238 83 4 0 7 0 7 -2z m-784 -81 c39 -21 43 -26 28
-34 -30 -17 -103 25 -88 50 7 11 10 11 60 -16z m524 -16 c0 -5 -17 -10 -37 -9
-31 0 -34 2 -18 9 28 12 55 12 55 0z m-205 -30 c-10 -11 -21 -17 -24 -14 -3 3
3 12 13 20 28 20 32 17 11 -6z m212 -57 c-1 0 -31 -13 -66 -27 -66 -26 -121
-34 -121 -16 0 5 -12 13 -26 16 l-25 6 22 12 c17 8 225 18 216 9z m-270 -9
c-3 -3 -12 -4 -19 -1 -8 3 -5 6 6 6 11 1 17 -2 13 -5z"/>
<path d="M1655 3830 c-3 -5 -1 -10 4 -10 6 0 11 5 11 10 0 6 -2 10 -4 10 -3 0
-8 -4 -11 -10z"/>
<path d="M3480 1705 c-7 -8 -8 -15 -2 -15 5 0 15 7 22 15 7 8 8 15 2 15 -5 0
-15 -7 -22 -15z"/>
<path d="M3005 1380 c-3 -5 -2 -10 4 -10 5 0 13 5 16 10 3 6 2 10 -4 10 -5 0
-13 -4 -16 -10z"/>
<path d="M3616 4119 c16 -27 27 -35 56 -37 25 -2 37 2 41 12 10 25 -3 46 -28
46 -12 0 -37 3 -56 7 l-33 6 20 -34z"/>
<path d="M3334 3829 c3 -17 6 -41 6 -53 0 -19 2 -18 25 9 29 36 30 44 8 61
-32 24 -46 17 -39 -17z"/>
<path d="M3500 3797 c0 -7 12 -30 27 -51 14 -22 26 -53 27 -70 1 -25 6 -32 26
-34 14 -2 33 -13 43 -23 11 -11 24 -18 30 -15 7 3 38 13 69 23 55 17 58 20 58
51 0 27 -6 35 -33 48 -27 13 -33 21 -29 40 5 28 8 28 -52 8 -47 -16 -48 -16
-96 10 -53 29 -70 32 -70 13z"/>
<path d="M4450 3501 c0 -13 12 -20 26 -14 20 8 17 19 -6 20 -11 1 -20 -2 -20
-6z"/>
<path d="M4427 3332 c-10 -10 -17 -35 -17 -54 0 -31 4 -38 28 -46 34 -11 72
11 72 42 0 19 -46 76 -61 76 -3 0 -13 -8 -22 -18z"/>
<path d="M4664 3227 c-18 -7 -45 -27 -62 -45 -17 -18 -52 -42 -79 -54 -74 -33
-94 -72 -51 -102 34 -24 52 -19 79 21 28 44 68 62 101 46 13 -6 37 -11 54 -12
26 -1 33 5 52 44 26 54 28 78 6 99 -18 19 -56 19 -100 3z"/>
<path d="M4050 3110 c0 -5 5 -10 11 -10 5 0 7 5 4 10 -3 6 -8 10 -11 10 -2 0
-4 -4 -4 -10z"/>
<path d="M4530 2531 c0 -11 4 -22 9 -25 11 -7 23 22 15 35 -9 16 -24 10 -24
-10z"/>
<path d="M4500 2529 c0 -5 5 -7 10 -4 6 3 10 8 10 11 0 2 -4 4 -10 4 -5 0 -10
-5 -10 -11z"/>
<path d="M1683 2480 c-37 -43 -44 -84 -15 -78 9 2 19 14 20 28 2 13 13 35 23
49 10 13 19 28 19 32 0 18 -16 8 -47 -31z"/>
<path d="M947 2453 c-4 -3 -7 -11 -7 -17 0 -6 5 -5 12 2 6 6 9 14 7 17 -3 3
-9 2 -12 -2z"/>
<path d="M1516 2331 c-4 -7 -5 -15 -2 -18 9 -9 19 4 14 18 -4 11 -6 11 -12 0z"/>
<path d="M951 2294 c0 -11 3 -14 6 -6 3 7 2 16 -1 19 -3 4 -6 -2 -5 -13z"/>
<path d="M1050 2081 c0 -5 5 -13 10 -16 6 -3 10 -2 10 4 0 5 -4 13 -10 16 -5
3 -10 2 -10 -4z"/>
<path d="M1511 2074 c0 -11 3 -14 6 -6 3 7 2 16 -1 19 -3 4 -6 -2 -5 -13z"/>
<path d="M1065 2030 c3 -5 8 -10 11 -10 2 0 4 5 4 10 0 6 -5 10 -11 10 -5 0
-7 -4 -4 -10z"/>
<path d="M1672 1683 c3 -33 7 -38 30 -41 22 -3 29 2 34 22 8 33 -10 56 -43 56
-22 0 -24 -4 -21 -37z"/>
<path d="M2298 1636 c-20 -15 -23 -26 -8 -26 5 0 14 9 20 20 12 23 11 24 -12
6z"/>
<path d="M3009 1211 c-42 -32 -207 -128 -231 -134 -35 -9 -185 -97 -165 -97
36 0 146 53 293 142 84 51 151 96 148 100 -8 12 -19 10 -45 -11z"/>
</g>
</svg>
